<svg width="109" height="20" viewBox="0 0 109 20" fill="none" xmlns="http://www.w3.org/2000/svg">
<path d="M100.6 15.9V11.7H103.4V15.9H106.9V10.3H109L102 4L95 10.3H97.1V15.9H100.6Z" fill="white"/>
<path d="M85 16.845L83.985 15.921C80.38 12.652 78 10.489 78 7.85C78 5.687 79.694 4 81.85 4C83.068 4 84.237 4.567 85 5.456C85.763 4.567 86.932 4 88.15 4C90.306 4 92 5.687 92 7.85C92 10.489 89.62 12.652 86.015 15.921L85 16.845Z" fill="white"/>
<path d="M70.3333 7.45017H62.5556V4.48339H70.3333V7.45017ZM68 14.8671C67.3812 14.8671 66.7877 14.6327 66.3501 14.2154C65.9125 13.7981 65.6667 13.2322 65.6667 12.642C65.6667 12.0519 65.9125 11.4859 66.3501 11.0687C66.7877 10.6514 67.3812 10.417 68 10.417C68.6188 10.417 69.2123 10.6514 69.6499 11.0687C70.0875 11.4859 70.3333 12.0519 70.3333 12.642C70.3333 13.2322 70.0875 13.7981 69.6499 14.2154C69.2123 14.6327 68.6188 14.8671 68 14.8671ZM71.8889 3H62.5556C61.6922 3 61 3.66753 61 4.48339V14.8671C61 15.2605 61.1639 15.6379 61.4556 15.916C61.7473 16.1942 62.143 16.3505 62.5556 16.3505H73.4444C73.857 16.3505 74.2527 16.1942 74.5444 15.916C74.8361 15.6379 75 15.2605 75 14.8671V5.96678L71.8889 3Z" fill="white"/>
<path d="M54.5 10.7H51.7V13.5H50.3V10.7H47.5V9.3H50.3V6.5H51.7V9.3H54.5V10.7ZM51 3C50.0807 3 49.1705 3.18106 48.3212 3.53284C47.4719 3.88463 46.7003 4.40024 46.0503 5.05025C44.7375 6.36301 44 8.14348 44 10C44 11.8565 44.7375 13.637 46.0503 14.9497C46.7003 15.5998 47.4719 16.1154 48.3212 16.4672C49.1705 16.8189 50.0807 17 51 17C52.8565 17 54.637 16.2625 55.9497 14.9497C57.2625 13.637 58 11.8565 58 10C58 9.08075 57.8189 8.17049 57.4672 7.32122C57.1154 6.47194 56.5998 5.70026 55.9497 5.05025C55.2997 4.40024 54.5281 3.88463 53.6788 3.53284C52.8295 3.18106 51.9193 3 51 3V3Z" fill="white"/>
<path d="M31 0C25.47 0 21 4.47 21 10C21 15.53 25.47 20 31 20C36.53 20 41 15.53 41 10C41 4.47 36.53 0 31 0ZM34.1 5.07C34.24 5.07 34.38 5.12 34.5 5.23L35.77 6.5C36 6.72 36 7.07 35.77 7.28L34.77 8.28L32.72 6.23L33.72 5.23C33.82 5.12 33.96 5.07 34.1 5.07ZM32.13 6.81L34.19 8.87L28.13 14.93H26.07V12.87L32.13 6.81Z" fill="#BDBDBD"/>
<path d="M14 8H4V6H14V8ZM14 12H4V10H14V12ZM11 16H4V14H11V16ZM9 2C9.26522 2 9.51957 2.10536 9.70711 2.29289C9.89464 2.48043 10 2.73478 10 3C10 3.26522 9.89464 3.51957 9.70711 3.70711C9.51957 3.89464 9.26522 4 9 4C8.73478 4 8.48043 3.89464 8.29289 3.70711C8.10536 3.51957 8 3.26522 8 3C8 2.73478 8.10536 2.48043 8.29289 2.29289C8.48043 2.10536 8.73478 2 9 2V2ZM16 2H11.82C11.4 0.84 10.3 0 9 0C7.7 0 6.6 0.84 6.18 2H2C1.46957 2 0.960859 2.21071 0.585786 2.58579C0.210714 2.96086 0 3.46957 0 4V18C0 18.5304 0.210714 19.0391 0.585786 19.4142C0.960859 19.7893 1.46957 20 2 20H16C16.5304 20 17.0391 19.7893 17.4142 19.4142C17.7893 19.0391 18 18.5304 18 18V4C18 3.46957 17.7893 2.96086 17.4142 2.58579C17.0391 2.21071 16.5304 2 16 2Z" fill="#BDBDBD"/>
</svg>
